<?xml version="1.0" encoding="UTF-8" standalone="no"?>
<!-- Created with Inkscape (http://www.inkscape.org/) -->

<svg
   xmlns:dc="http://purl.org/dc/elements/1.1/"
   xmlns:cc="http://creativecommons.org/ns#"
   xmlns:rdf="http://www.w3.org/1999/02/22-rdf-syntax-ns#"
   xmlns:svg="http://www.w3.org/2000/svg"
   xmlns="http://www.w3.org/2000/svg"
   xmlns:sodipodi="http://sodipodi.sourceforge.net/DTD/sodipodi-0.dtd"
   xmlns:inkscape="http://www.inkscape.org/namespaces/inkscape"
   width="1800"
   height="1800"
   viewBox="0 0 1800 1800"
   version="1.1"
   id="SVGRoot"
   sodipodi:docname="header.svg"
   inkscape:version="0.92.2 (5c3e80d, 2017-08-06)">
  <sodipodi:namedview
     id="base"
     pagecolor="#ffffff"
     bordercolor="#666666"
     borderopacity="1.0"
     inkscape:pageopacity="0.0"
     inkscape:pageshadow="2"
     inkscape:zoom="0.35"
     inkscape:cx="441.71187"
     inkscape:cy="448.55059"
     inkscape:document-units="px"
     inkscape:current-layer="g1202"
     showgrid="false"
     inkscape:window-width="1366"
     inkscape:window-height="715"
     inkscape:window-x="-8"
     inkscape:window-y="-8"
     inkscape:window-maximized="1"
     inkscape:snap-page="true"
     inkscape:snap-smooth-nodes="true"
     inkscape:measure-start="509.643,717.857"
     inkscape:measure-end="509.643,717.5"
     inkscape:snap-to-guides="true"
     inkscape:snap-grids="true"
     inkscape:snap-bbox="false"
     inkscape:object-paths="false"
     fit-margin-top="5"
     fit-margin-left="5"
     fit-margin-right="5"
     fit-margin-bottom="5" />
  <defs
     id="defs4025">
    <filter
       style="color-interpolation-filters:sRGB"
       inkscape:label="Blur"
       id="filter1206">
      <feGaussianBlur
         stdDeviation="2 2"
         result="blur"
         id="feGaussianBlur1204" />
    </filter>
    <filter
       style="color-interpolation-filters:sRGB"
       inkscape:label="Blur"
       id="filter1206-7">
      <feGaussianBlur
         stdDeviation="2 2"
         result="blur"
         id="feGaussianBlur1204-6" />
    </filter>
    <filter
       style="color-interpolation-filters:sRGB"
       inkscape:label="Blur"
       id="filter1308">
      <feGaussianBlur
         stdDeviation="2 2"
         result="blur"
         id="feGaussianBlur1306" />
    </filter>
    <filter
       style="color-interpolation-filters:sRGB"
       inkscape:label="Blur"
       id="filter1312">
      <feGaussianBlur
         stdDeviation="2 2"
         result="blur"
         id="feGaussianBlur1310" />
    </filter>
    <filter
       style="color-interpolation-filters:sRGB"
       inkscape:label="Blur"
       id="filter1316">
      <feGaussianBlur
         stdDeviation="2 2"
         result="blur"
         id="feGaussianBlur1314" />
    </filter>
    <filter
       style="color-interpolation-filters:sRGB"
       inkscape:label="Blur"
       id="filter1320">
      <feGaussianBlur
         stdDeviation="2 2"
         result="blur"
         id="feGaussianBlur1318" />
    </filter>
    <filter
       style="color-interpolation-filters:sRGB"
       inkscape:label="Blur"
       id="filter1324">
      <feGaussianBlur
         stdDeviation="2 2"
         result="blur"
         id="feGaussianBlur1322" />
    </filter>
    <filter
       style="color-interpolation-filters:sRGB"
       inkscape:label="Blur"
       id="filter1328">
      <feGaussianBlur
         stdDeviation="2 2"
         result="blur"
         id="feGaussianBlur1326" />
    </filter>
    <filter
       style="color-interpolation-filters:sRGB"
       inkscape:label="Blur"
       id="filter1332">
      <feGaussianBlur
         stdDeviation="2 2"
         result="blur"
         id="feGaussianBlur1330" />
    </filter>
    <filter
       style="color-interpolation-filters:sRGB"
       inkscape:label="Blur"
       id="filter1336">
      <feGaussianBlur
         stdDeviation="2 2"
         result="blur"
         id="feGaussianBlur1334" />
    </filter>
    <filter
       style="color-interpolation-filters:sRGB"
       inkscape:label="Blur"
       id="filter1340">
      <feGaussianBlur
         stdDeviation="2 2"
         result="blur"
         id="feGaussianBlur1338" />
    </filter>
    <filter
       style="color-interpolation-filters:sRGB"
       inkscape:label="Blur"
       id="filter1344">
      <feGaussianBlur
         stdDeviation="2 2"
         result="blur"
         id="feGaussianBlur1342" />
    </filter>
    <filter
       style="color-interpolation-filters:sRGB"
       inkscape:label="Blur"
       id="filter1348">
      <feGaussianBlur
         stdDeviation="2 2"
         result="blur"
         id="feGaussianBlur1346" />
    </filter>
    <filter
       style="color-interpolation-filters:sRGB"
       inkscape:label="Blur"
       id="filter1352">
      <feGaussianBlur
         stdDeviation="2 2"
         result="blur"
         id="feGaussianBlur1350" />
    </filter>
    <filter
       style="color-interpolation-filters:sRGB"
       inkscape:label="Blur"
       id="filter1356">
      <feGaussianBlur
         stdDeviation="2 2"
         result="blur"
         id="feGaussianBlur1354" />
    </filter>
    <filter
       style="color-interpolation-filters:sRGB"
       inkscape:label="Blur"
       id="filter1360">
      <feGaussianBlur
         stdDeviation="2 2"
         result="blur"
         id="feGaussianBlur1358" />
    </filter>
    <filter
       style="color-interpolation-filters:sRGB"
       inkscape:label="Blur"
       id="filter1364">
      <feGaussianBlur
         stdDeviation="2 2"
         result="blur"
         id="feGaussianBlur1362" />
    </filter>
    <filter
       style="color-interpolation-filters:sRGB"
       inkscape:label="Blur"
       id="filter1368">
      <feGaussianBlur
         stdDeviation="2 2"
         result="blur"
         id="feGaussianBlur1366" />
    </filter>
  </defs>
  <metadata
     id="metadata4028">
    <rdf:RDF>
      <cc:Work
         rdf:about="">
        <dc:format>image/svg+xml</dc:format>
        <dc:type
           rdf:resource="http://purl.org/dc/dcmitype/StillImage" />
        <dc:title></dc:title>
      </cc:Work>
    </rdf:RDF>
  </metadata>
  <g
     id="layer1"
     inkscape:groupmode="layer"
     inkscape:label="Layer 1"
     transform="translate(0.57525128,839.27075)">
    <g
       id="g4565"
       transform="matrix(22.15693,0,0,22.15693,919.20095,-21199.165)"
       inkscape:export-xdpi="96"
       inkscape:export-ydpi="96">
      <g
         id="g1173">
        <g
           id="g1202"
           style="filter:url(#filter1206)"
           transform="translate(0.57137922,-18.236327)">
          <path
             inkscape:connector-curvature="0"
             id="path4059-3-6-61-0-9-7-9"
             d="m 37.592376,954.48537 a 2.5218568,2.5218568 0 0 0 -1.844584,0.67461 2.5218568,2.5218568 0 0 0 -0.124053,3.56433 2.5218568,2.5218568 0 0 0 0.150318,0.14612 c 0.372088,0.45285 0.719118,0.78775 0.624662,1.1246 -0.0489,0.32714 -0.605961,0.5204 -1.151835,0.84037 a 1.8331927,1.8331927 0 0 0 -0.596545,0.37082 1.8331927,1.8331927 0 0 0 -0.09021,2.59094 1.8331927,1.8331927 0 0 0 2.591016,0.0902 1.8331927,1.8331927 0 0 0 0.567282,-1.11612 c 0.0039,-0.0287 0.0065,-0.0574 0.0084,-0.0857 a 1.8331927,1.8331927 0 0 0 0.0046,-0.0764 c 6e-6,0 -7e-6,0 0,0 a 1.8331927,1.8331927 0 0 0 -0.294351,-1.05744 c -0.307496,-0.59376 -0.727569,-1.07797 -0.594113,-1.39826 0.110778,-0.40049 0.753189,-0.47711 1.434188,-0.7618 a 2.5218568,2.5218568 0 0 0 0.910587,-0.54172 2.5218568,2.5218568 0 0 0 0.124054,-3.56433 2.5218568,2.5218568 0 0 0 -1.71969,-0.79863 z"
             style="fill:#ef5350;fill-opacity:0.99029122;stroke-width:0.08901384" />
          <path
             inkscape:connector-curvature="0"
             id="path4059-3-6"
             d="m 14.735068,971.12712 a 4.6020111,4.6020111 0 0 0 6.447091,0.88908 4.6020111,4.6020111 0 0 0 0.293864,-0.2457 c 0.891207,-0.59106 1.563571,-1.15852 2.157383,-0.9243 0.584711,0.14968 0.831882,1.1966 1.310715,2.24719 a 3.3453021,3.3453021 0 0 0 0.562326,1.15229 3.3453021,3.3453021 0 0 0 4.686497,0.64636 3.3453021,3.3453021 0 0 0 0.646524,-4.6866 3.3453021,3.3453021 0 0 0 -1.759264,-1.19658 3.3453021,3.3453021 0 0 0 -0.111319,-0.031 c -0.08482,-0.0214 -0.168904,-0.0386 -0.25299,-0.0517 a 3.3453021,3.3453021 0 0 0 -0.08864,-0.0129 3.3453021,3.3453021 0 0 0 -1.956687,0.32609 c -1.144673,0.44755 -2.109096,1.13282 -2.669212,0.82898 -0.706305,-0.27567 -0.725507,-1.45579 -1.115321,-2.74475 a 4.6020111,4.6020111 0 0 0 -0.814213,-1.75471 4.6020111,4.6020111 0 0 0 -6.447197,-0.88922 4.6020111,4.6020111 0 0 0 -0.889221,6.44719 z"
             style="fill:#fb8c00;fill-opacity:1;stroke-width:0.10988683" />
          <circle
             r="2.3786032"
             cy="-557.11804"
             cx="-795.60345"
             id="path4059-3"
             style="fill:#fb8c00;fill-opacity:1;stroke-width:0.0781326"
             transform="rotate(-127.1471)" />
          <circle
             transform="scale(-1)"
             r="1.9267876"
             cy="-983.48022"
             cx="-38.180233"
             id="path4059-3-62"
             style="fill:#03a9f4;fill-opacity:1;stroke-width:0.06329132" />
          <path
             inkscape:connector-curvature="0"
             id="path4059-3-6-61"
             d="m 35.453027,987.16209 a 2.7098622,2.7098622 0 0 0 -1.424486,-1.12087 c -0.06621,-0.0231 -0.132456,-0.0425 -0.1989,-0.0589 a 2.7098622,2.7098622 0 0 0 -1.674195,0.10984 c -0.955015,0.28137 -1.780951,0.76742 -2.211805,0.48315 -0.550647,-0.2716 -0.484379,-1.22482 -0.708924,-2.29181 a 3.7278594,3.7278594 0 0 0 -0.53489,-1.47402 3.7278594,3.7278594 0 0 0 -5.141199,-1.16686 3.7278594,3.7278594 0 0 0 -1.166851,5.14128 3.7278594,3.7278594 0 0 0 5.141283,1.1668 3.7278594,3.7278594 0 0 0 0.254709,-0.17821 c 0.760178,-0.41483 1.342174,-0.82545 1.804985,-0.59514 0.461352,0.16158 0.588129,1.0235 0.901283,1.90471 a 2.7098622,2.7098622 0 0 0 0.373433,0.9692 2.7098622,2.7098622 0 0 0 3.737348,0.84822 2.7098622,2.7098622 0 0 0 0.848203,-3.73736 z"
             style="fill:#03a9f4;fill-opacity:1;stroke-width:0.08901384" />
          <circle
             r="1.9267876"
             transform="rotate(-100.68551)"
             cy="-140.77032"
             cx="-956.63721"
             id="path4059-3-62-2"
             style="fill:#ec407a;fill-opacity:1;stroke-width:0.06329132" />
          <path
             inkscape:connector-curvature="0"
             id="path4059-3-6-61-0"
             d="m 26.278131,955.61155 a 3.7278594,3.7278594 0 0 0 -0.741575,0.0646 3.7278594,3.7278594 0 0 0 -2.972018,4.35441 3.7278594,3.7278594 0 0 0 4.35453,2.972 3.7278594,3.7278594 0 0 0 0.301484,-0.0721 c 0.85976,-0.10688 1.552137,-0.27569 1.898261,0.1085 0.370112,0.31972 0.171086,1.16876 0.139467,2.10393 a 2.7098622,2.7098622 0 0 0 -0.0082,1.03735 2.7098622,2.7098622 0 0 0 3.165288,2.16033 2.7098622,2.7098622 0 0 0 2.160354,-3.16527 2.7098622,2.7098622 0 0 0 -0.843784,-1.50286 2.7098622,2.7098622 0 0 0 -0.06952,-0.0626 c -0.0534,-0.0463 -0.108326,-0.0888 -0.164448,-0.12865 a 2.7098622,2.7098622 0 0 0 -1.597065,-0.51154 c -0.991637,-0.0887 -1.938368,0.06 -2.234864,-0.36215 -0.412653,-0.45487 -6.52e-4,-1.31754 0.181865,-2.39278 a 3.7278594,3.7278594 0 0 0 0.0431,-1.56682 3.7278594,3.7278594 0 0 0 -3.612956,-3.03636 z"
             style="fill:#ec407a;fill-opacity:1;stroke-width:0.08901384" />
          <circle
             r="1.9267876"
             transform="rotate(79.31449)"
             cy="172.68938"
             cx="962.6651"
             id="path4059-3-62-2-5"
             style="fill:#8bc34a;fill-opacity:1;stroke-width:0.06329132" />
          <path
             inkscape:connector-curvature="0"
             id="path4059-3-6-61-0-9"
             d="m 43.637937,975.32859 a 2.9239776,2.9239776 0 0 0 0.08565,-0.5775 2.9239776,2.9239776 0 0 0 -2.781676,-3.05953 2.9239776,2.9239776 0 0 0 -1.786496,0.50833 c -1.62e-4,6.8e-4 -2.68e-4,10e-4 -8.05e-4,0.002 a 2.9239776,2.9239776 0 0 0 -0.08139,0.0557 c -0.06207,0.045 -0.12152,0.0925 -0.177849,0.14194 a 2.9239776,2.9239776 0 0 0 -0.05792,0.0517 c -1.24e-4,5.1e-4 -2.72e-4,10e-4 -4.39e-4,0.002 a 2.9239776,2.9239776 0 0 0 -0.876536,1.49418 c -0.341234,1.01862 -0.422056,2.04952 -0.939479,2.25505 -0.580863,0.31947 -1.383618,-0.32932 -2.467178,-0.79023 a 4.0224101,4.0224101 0 0 0 -1.632332,-0.43653 4.0224101,4.0224101 0 0 0 -4.208985,3.82668 4.0224101,4.0224101 0 0 0 3.826634,4.20901 4.0224101,4.0224101 0 0 0 4.209018,-3.82684 4.0224101,4.0224101 0 0 0 -2.55e-4,-0.33527 c 0.102799,-0.9288 0.09921,-1.69738 0.588967,-1.96445 0.428078,-0.30837 1.268934,0.11264 2.242138,0.37983 a 2.9239776,2.9239776 0 0 0 1.08764,0.26839 2.9239776,2.9239776 0 0 0 2.973855,-2.20423 z"
             style="fill:#8bc34a;fill-opacity:1;stroke-width:0.09604713" />
          <circle
             r="1.3034511"
             transform="rotate(136.99312)"
             cy="-721.02539"
             cx="669.52386"
             id="path4059-3-62-2-5-9"
             style="fill:#26a69a;fill-opacity:1;stroke-width:0.06329133" />
          <path
             inkscape:connector-curvature="0"
             id="path4059-3-6-61-0-9-7"
             d="m 24.989125,974.97863 a 3.2043724,3.2043724 0 0 0 -2.447207,-0.48917 3.2043724,3.2043724 0 0 0 -1.862764,1.14872 c -0.03195,0.0393 -0.06197,0.0797 -0.09067,0.12043 a 3.2043724,3.2043724 0 0 0 -0.07607,0.10925 c -10e-6,-2e-5 2e-5,0 0,0 a 3.2043724,3.2043724 0 0 0 -0.523916,1.84605 c -0.08184,1.16585 0.104004,2.27081 -0.38679,2.62719 -0.529848,0.49657 -1.557698,0.0264 -2.832535,-0.1692 a 4.408139,4.408139 0 0 0 -1.853046,-0.021 4.408139,4.408139 0 0 0 -3.430806,5.20512 4.408139,4.408139 0 0 0 5.205118,3.43071 4.408139,4.408139 0 0 0 3.430807,-5.20512 4.408139,4.408139 0 0 0 -0.09121,-0.35587 c -0.142845,-1.01401 -0.355467,-1.82939 0.09203,-2.24577 0.370747,-0.44336 1.377285,-0.22509 2.482534,-0.20522 a 3.2043724,3.2043724 0 0 0 1.22907,-0.0105 3.2043724,3.2043724 0 0 0 2.494092,-3.78383 3.2043724,3.2043724 0 0 0 -1.336699,-2.00461 z"
             style="fill:#26a69a;fill-opacity:1;stroke-width:0.15559383" />
          <circle
             r="1.3034511"
             transform="rotate(-110.09618)"
             cy="-318.78149"
             cx="-923.81158"
             id="path4059-3-62-2-5-9-2-4"
             style="fill:#fdd835;fill-opacity:1;stroke-width:0.06329133" />
          <path
             inkscape:connector-curvature="0"
             id="path4059-3-6-61-0-9-7-9-7"
             d="m 13.187206,976.48416 a 1.8331927,1.8331927 0 0 0 1.42592,0.0704 1.8331927,1.8331927 0 0 0 1.091825,-2.35152 1.8331927,1.8331927 0 0 0 -0.729494,-0.90958 1.8331927,1.8331927 0 0 0 -0.07754,-0.0477 c -0.02564,-0.0121 -0.04806,-0.0305 -0.0734,-0.0425 a 1.8331927,1.8331927 0 0 0 -1.159295,-0.1761 c -0.666848,0.052 -1.276714,0.25063 -1.51986,0.003 -0.325632,-0.25788 -0.146401,-0.87898 -0.143391,-1.6166 a 2.5218568,2.5218568 0 0 0 -0.14449,-1.05069 2.5218568,2.5218568 0 0 0 -3.234874,-1.50185 2.5218568,2.5218568 0 0 0 -1.5017733,3.23477 2.5218568,2.5218568 0 0 0 3.2348683,1.50185 2.5218568,2.5218568 0 0 0 0.193294,-0.0815 c 0.561921,-0.16644 1.005327,-0.35583 1.278806,-0.1377 0.282247,0.17243 0.243464,0.7608 0.325673,1.38811 a 1.8331927,1.8331927 0 0 0 0.109375,0.69391 1.8331927,1.8331927 0 0 0 0.925503,1.02133 z"
             style="fill:#fdd835;fill-opacity:1;stroke-width:0.08901384" />
          <circle
             r="1.3034511"
             transform="rotate(-135.40825)"
             cy="-680.28778"
             cx="-677.51147"
             id="path4059-3-62-2-5-9-2-4-0"
             style="fill:#5c6bc0;fill-opacity:1;stroke-width:0.06329133" />
          <path
             inkscape:connector-curvature="0"
             id="path4059-3-6-61-0-9-7-9-7-3"
             d="m 33.809084,993.1994 a 3.2238858,3.2191561 67.711564 0 0 0.169351,2.50487 3.2238858,3.2191561 67.711564 0 0 4.325338,1.42907 3.2238858,3.2191561 67.711564 0 0 1.423215,-4.32854 3.2238858,3.2191561 67.711564 0 0 -0.132534,-0.2339 c -0.294632,-0.68851 -0.599996,-1.22348 -0.364186,-1.60278 0.176664,-0.38376 0.928382,-0.42139 1.71164,-0.61837 a 2.3435129,2.3400748 67.711564 0 0 0.863655,-0.24112 2.3435129,2.3400748 67.711564 0 0 1.034794,-3.14656 2.3435129,2.3400748 67.711564 0 0 -3.144497,-1.03879 2.3435129,2.3400748 67.711564 0 0 -1.044747,1.06025 2.3435129,2.3400748 67.711564 0 0 -0.049,0.10546 c -0.01156,0.0344 -0.03153,0.0657 -0.04298,0.0996 a 2.3435129,2.3400748 67.711564 0 0 -0.05078,1.49761 c 0.165177,0.83899 0.507712,1.584 0.229844,1.92928 -0.278677,0.45177 -1.093754,0.31527 -2.030405,0.42066 a 3.2238858,3.2191561 67.711564 0 0 -1.309099,0.33856 3.2238858,3.2191561 67.711564 0 0 -1.592524,1.82369 z"
             style="fill:#5c6bc0;fill-opacity:1;stroke-width:0.11370981" />
          <circle
             transform="scale(-1)"
             r="1.9267876"
             cy="-967.80524"
             cx="-1.3122811"
             id="path4059-3-62-7"
             style="fill:#03a9f4;fill-opacity:1;stroke-width:0.06329132" />
          <circle
             r="1.3034511"
             transform="rotate(-110.09618)"
             cy="-317.31232"
             cx="-909.27802"
             id="path4059-3-62-2-5-9-2-4-3"
             style="fill:#fdd835;fill-opacity:1;stroke-width:0.06329133" />
          <path
             inkscape:connector-curvature="0"
             id="path4059-3-6-61-0-9-7-9-9"
             d="m -22.285734,999.79632 a 2.5218568,2.5218568 0 0 0 -1.198059,-1.55635 2.5218568,2.5218568 0 0 0 -3.436668,0.95349 2.5218568,2.5218568 0 0 0 -0.09416,0.1873 c -0.320003,0.49104 -0.53505,0.92274 -0.884713,0.93394 -0.326704,0.052 -0.678529,-0.42145 -1.147836,-0.84584 a 1.8331927,1.8331927 0 0 0 -0.53304,-0.45743 1.8331927,1.8331927 0 0 0 -2.498153,0.69306 1.8331927,1.8331927 0 0 0 0.6931,2.49821 1.8331927,1.8331927 0 0 0 1.235047,0.2054 c 0.02854,0 0.0567,-0.011 0.08426,-0.018 a 1.8331927,1.8331927 0 0 0 0.07425,-0.019 c 2e-6,0 -2e-6,0 0,0 a 1.8331927,1.8331927 0 0 0 0.919987,-0.5987 c 0.473815,-0.4718 0.809298,-1.018 1.154895,-0.9871 0.415265,-0.015 0.681514,0.5749 1.157806,1.1388 a 2.5218568,2.5218568 0 0 0 0.790464,0.7055 2.5218568,2.5218568 0 0 0 3.436669,-0.9535 2.5218568,2.5218568 0 0 0 0.244552,-1.88022 z"
             style="fill:#ef5350;fill-opacity:0.99029122;stroke-width:0.08901384" />
          <circle
             r="1.9267877"
             transform="rotate(-28.18532)"
             cy="869.98688"
             cx="-503.60452"
             id="path4059-3-62-2-1"
             style="fill:#ec407a;fill-opacity:1;stroke-width:0.06329132" />
          <path
             inkscape:connector-curvature="0"
             id="path4059-3-6-61-0-5"
             d="m -26.762015,989.34437 a 3.7278594,3.7278594 0 0 0 -0.284604,-0.68783 3.7278594,3.7278594 0 0 0 -5.046573,-1.52508 3.7278594,3.7278594 0 0 0 -1.525031,5.04668 3.7278594,3.7278594 0 0 0 0.15942,0.26585 c 0.360466,0.78783 0.729663,1.3974 0.467334,1.84303 -0.193629,0.44912 -1.063221,0.51462 -1.964618,0.76567 a 2.7098622,2.7098622 0 0 0 -0.991805,0.30411 2.7098622,2.7098622 0 0 0 -1.108535,3.66841 2.7098622,2.7098622 0 0 0 3.668399,1.10859 2.7098622,2.7098622 0 0 0 1.179577,-1.25667 2.7098622,2.7098622 0 0 0 0.0388,-0.0851 c 0.0281,-0.0648 0.05212,-0.13001 0.07325,-0.19552 a 2.7098622,2.7098622 0 0 0 0.0076,-1.67697 c -0.213593,-0.97241 -0.640096,-1.83061 -0.326641,-2.24033 0.309732,-0.53033 1.256366,-0.39681 2.336725,-0.54607 a 3.7278594,3.7278594 0 0 0 1.507264,-0.43004 3.7278594,3.7278594 0 0 0 1.809406,-4.35878 z"
             style="fill:#ec407a;fill-opacity:1;stroke-width:0.08901384" />
          <path
             inkscape:connector-curvature="0"
             id="path4059-3-6-61-9"
             d="m -32.261034,949.71983 a 2.7098622,2.7098622 0 0 0 -0.410871,1.76541 c 0.0072,0.0698 0.01769,0.13798 0.03102,0.20511 a 2.7098622,2.7098622 0 0 0 0.809567,1.46956 c 0.659869,0.74551 1.450348,1.28732 1.375658,1.79807 -0.01241,0.61386 -0.903746,0.95815 -1.774769,1.61405 a 3.7278594,3.7278594 0 0 0 -1.107997,1.10959 3.7278594,3.7278594 0 0 0 1.123896,5.15076 3.7278594,3.7278594 0 0 0 5.150831,-1.12393 3.7278594,3.7278594 0 0 0 -1.123985,-5.15082 3.7278594,3.7278594 0 0 0 -0.269419,-0.15507 c -0.698092,-0.51247 -1.316797,-0.86536 -1.304527,-1.38217 -0.04935,-0.48633 0.677427,-0.96671 1.342626,-1.62406 a 2.7098622,2.7098622 0 0 0 0.719314,-0.74926 2.7098622,2.7098622 0 0 0 -0.817022,-3.74429 2.7098622,2.7098622 0 0 0 -3.744295,0.81704 z"
             style="fill:#03a9f4;fill-opacity:1;stroke-width:0.08901384" />
          <path
             inkscape:connector-curvature="0"
             id="path4059-3-6-61-0-9-7-98"
             d="m -38.856142,964.36341 a 3.2043724,3.2043724 0 0 0 0.594973,2.42366 3.2043724,3.2043724 0 0 0 1.830353,1.19969 c 0.04914,0.0123 0.09846,0.0223 0.147518,0.031 a 3.2043724,3.2043724 0 0 0 0.1312,0.0225 c -1.3e-5,2e-5 -8e-6,-2e-5 0,0 a 3.2043724,3.2043724 0 0 0 1.89399,-0.30853 c 1.090501,-0.42037 2.012323,-1.05733 2.543226,-0.76403 0.674422,0.26921 0.684593,1.39945 1.04817,2.6369 a 4.408139,4.408139 0 0 0 0.766938,1.68702 4.408139,4.408139 0 0 0 6.168883,0.89921 4.408139,4.408139 0 0 0 0.899126,-6.16884 4.408139,4.408139 0 0 0 -6.168883,-0.89922 4.408139,4.408139 0 0 0 -0.283589,0.23354 c -0.857696,0.55945 -1.505919,1.09783 -2.072793,0.86919 -0.558754,-0.1477 -0.788005,-1.1518 -1.238793,-2.16113 a 3.2043724,3.2043724 0 0 0 -0.530809,-1.10859 3.2043724,3.2043724 0 0 0 -4.48447,-0.65376 3.2043724,3.2043724 0 0 0 -1.248416,2.06075 z"
             style="fill:#fdd835;fill-opacity:1;stroke-width:0.15559383" />
          <path
             inkscape:connector-curvature="0"
             id="path4059-3-6-61-0-9-7-9-7-8"
             d="m -32.48705,974.41262 a 1.8331927,1.8331927 0 0 0 -0.541039,-1.32117 1.8331927,1.8331927 0 0 0 -2.592615,0.009 1.8331927,1.8331927 0 0 0 -0.514303,1.04642 1.8331927,1.8331927 0 0 0 -0.01031,0.0905 c -8.2e-5,0.0283 -0.0072,0.0565 -0.0074,0.0845 a 1.8331927,1.8331927 0 0 0 0.33223,1.12455 c 0.329929,0.58184 0.768477,1.04988 0.647353,1.3751 -0.09542,0.40427 -0.733905,0.5054 -1.403168,0.81553 a 2.5218568,2.5218568 0 0 0 -0.890216,0.57649 2.5218568,2.5218568 0 0 0 0.01198,3.56648 2.5218568,2.5218568 0 0 0 3.566358,-0.012 2.5218568,2.5218568 0 0 0 -0.01197,-3.56648 2.5218568,2.5218568 0 0 0 -0.15579,-0.14048 c -0.389062,-0.43828 -0.74864,-0.7595 -0.667096,-1.09967 0.03644,-0.32874 0.585714,-0.54317 1.118934,-0.88369 a 1.8331927,1.8331927 0 0 0 0.582012,-0.39336 1.8331927,1.8331927 0 0 0 0.532367,-1.27133 z"
             style="fill:#fdd835;fill-opacity:1;stroke-width:0.08901384" />
          <path
             inkscape:connector-curvature="0"
             id="path4059-3-6-61-0-9-7-9-95"
             d="m 860.41345,0.06810258 a 55.876605,55.876605 0 0 0 -40.87032,14.94728642 55.876605,55.876605 0 0 0 -2.74863,78.97461 55.876605,55.876605 0 0 0 3.33058,3.237571 c 8.24433,10.03377 15.93345,17.45412 13.8406,24.91768 -1.08348,7.24842 -13.42624,11.53047 -25.52113,18.62002 a 40.617922,40.617922 0 0 0 -13.21761,8.21624 40.617922,40.617922 0 0 0 -1.99877,57.40727 40.617922,40.617922 0 0 0 57.40896,1.99856 40.617922,40.617922 0 0 0 12.56922,-24.7298 c 0.0864,-0.6359 0.14402,-1.2718 0.18612,-1.89884 a 40.617922,40.617922 0 0 0 0.10192,-1.69279 c 1.4e-4,0 -1.5e-4,0 0,0 a 40.617922,40.617922 0 0 0 -6.52191,-23.42963 c -6.81317,-13.1559 -16.1207,-23.8845 -13.16372,-30.98115 2.4545,-8.87363 16.68835,-10.57129 31.7772,-16.87915 a 55.876605,55.876605 0 0 0 20.17581,-12.002849 55.876605,55.876605 0 0 0 2.74866,-78.97461 55.876605,55.876605 0 0 0 -38.10305,-17.6951889 z"
             style="fill:#ef5350;fill-opacity:0.99029122;stroke-width:1.97227335;filter:url(#filter1206)"
             transform="matrix(-0.04502023,0.00318296,-0.00318296,-0.04502023,29.395864,1042.7256)" />
          <path
             inkscape:connector-curvature="0"
             id="path4059-3-6-2"
             d="m 353.96568,368.79819 a 101.96644,101.96644 0 0 0 142.84774,19.69929 101.96644,101.96644 0 0 0 6.51112,-5.44396 c 19.74642,-13.09608 34.64394,-25.66925 47.80099,-20.47965 12.9554,3.31645 18.43195,26.51298 29.04142,49.79083 a 74.121624,74.121624 0 0 0 12.45942,25.53121 74.121624,74.121624 0 0 0 103.83838,14.32135 74.121624,74.121624 0 0 0 14.32499,-103.84067 74.121624,74.121624 0 0 0 -38.97989,-26.51254 74.121624,74.121624 0 0 0 -2.46649,-0.68686 c -1.87935,-0.47416 -3.74239,-0.85526 -5.60548,-1.14551 a 74.121624,74.121624 0 0 0 -1.96399,-0.28583 74.121624,74.121624 0 0 0 -43.35418,7.22515 c -25.36243,9.91634 -46.73109,25.09982 -59.14154,18.36766 -15.64955,-6.108 -16.07501,-32.25584 -24.71209,-60.81524 A 101.96644,101.96644 0 0 0 516.52562,245.64444 101.96644,101.96644 0 0 0 373.67553,225.94205 101.96644,101.96644 0 0 0 353.97312,368.79199 Z"
             style="fill:#fb8c00;fill-opacity:1;stroke-width:2.43475485;filter:url(#filter1206)"
             transform="matrix(-0.04502023,0.00318296,-0.00318296,-0.04502023,29.395864,1042.7256)" />
          <circle
             r="52.702545"
             cy="448.62402"
             cx="-787.59534"
             id="path4059-3-1"
             style="fill:#fb8c00;fill-opacity:1;stroke-width:1.73117852;filter:url(#filter1206)"
             transform="matrix(0.02972317,0.033963,-0.033963,0.02972317,29.395864,1042.7256)" />
          <circle
             transform="matrix(0.04502023,-0.00318296,0.00318296,0.04502023,29.395864,1042.7256)"
             r="42.6917"
             cy="-642.50525"
             cx="-873.43854"
             id="path4059-3-62-8"
             style="fill:#03a9f4;fill-opacity:1;stroke-width:1.40234137;filter:url(#filter1206)" />
          <path
             inkscape:connector-curvature="0"
             id="path4059-3-6-61-96"
             d="m 813.01204,724.0839 a 60.042227,60.042227 0 0 0 -31.56223,-24.83504 c -1.46701,-0.51182 -2.93482,-0.94167 -4.40702,-1.30504 a 60.042227,60.042227 0 0 0 -37.09502,2.43372 c -21.1602,6.23429 -39.4604,17.00367 -49.00681,10.70512 -12.20064,-6.01783 -10.73235,-27.13825 -15.70758,-50.77948 a 82.59792,82.59792 0 0 0 -11.85152,-32.65975 82.59792,82.59792 0 0 0 -113.91318,-25.85404 82.59792,82.59792 0 0 0 -25.85384,113.91498 82.59792,82.59792 0 0 0 113.91505,25.85271 82.59792,82.59792 0 0 0 5.64357,-3.94859 c 16.84321,-9.19136 29.73845,-18.28944 39.99293,-13.18647 10.22214,3.58011 13.03113,22.67761 19.96966,42.20252 a 60.042227,60.042227 0 0 0 8.27413,21.4745 60.042227,60.042227 0 0 0 82.80816,18.79395 60.042227,60.042227 0 0 0 18.79357,-82.80843 z"
             style="fill:#03a9f4;fill-opacity:1;stroke-width:1.97227335;filter:url(#filter1206)"
             transform="matrix(-0.04502023,0.00318296,-0.00318296,-0.04502023,29.395864,1042.7256)" />
          <circle
             r="42.6917"
             transform="matrix(0.01147533,0.04364938,-0.04364938,0.01147533,29.395864,1042.7256)"
             cy="829.26276"
             cx="-419.56067"
             id="path4059-3-62-2-7"
             style="fill:#ec407a;fill-opacity:1;stroke-width:1.40234137;filter:url(#filter1206)" />
          <path
             inkscape:connector-curvature="0"
             id="path4059-3-6-61-0-4"
             d="m 609.72452,25.020794 a 82.59792,82.59792 0 0 0 -16.43103,1.431338 82.59792,82.59792 0 0 0 -65.85079,96.480358 82.59792,82.59792 0 0 0 96.48301,65.8504 82.59792,82.59792 0 0 0 6.67996,-1.59752 c 19.04964,-2.36813 34.39059,-6.10844 42.05964,2.40403 8.20054,7.08401 3.79074,25.89613 3.09016,46.61663 a 60.042227,60.042227 0 0 0 -0.18169,22.98449 60.042227,60.042227 0 0 0 70.13307,47.86628 60.042227,60.042227 0 0 0 47.86681,-70.13267 60.042227,60.042227 0 0 0 -18.69566,-33.29876 60.042227,60.042227 0 0 0 -1.54035,-1.38702 c -1.18318,-1.02587 -2.40018,-1.96754 -3.64367,-2.85049 A 60.042227,60.042227 0 0 0 734.30793,188.0537 c -21.97164,-1.96532 -42.94829,1.32942 -49.51773,-8.02413 -9.14312,-10.07852 -0.0145,-29.19264 4.02957,-53.01666 a 82.59792,82.59792 0 0 0 0.95496,-34.715922 82.59792,82.59792 0 0 0 -80.05201,-67.276416 z"
             style="fill:#ec407a;fill-opacity:1;stroke-width:1.97227335;filter:url(#filter1206)"
             transform="matrix(-0.04502023,0.00318296,-0.00318296,-0.04502023,29.395864,1042.7256)" />
          <circle
             r="42.6917"
             transform="matrix(-0.01147533,-0.04364938,0.04364938,-0.01147533,29.395864,1042.7256)"
             cy="-122.03455"
             cx="553.1203"
             id="path4059-3-62-2-5-7"
             style="fill:#8bc34a;fill-opacity:1;stroke-width:1.40234137;filter:url(#filter1206)" />
          <path
             inkscape:connector-curvature="0"
             id="path4059-3-6-61-0-9-1"
             d="m 994.36452,461.88987 a 64.786367,64.786367 0 0 0 1.89774,-12.79563 64.786367,64.786367 0 0 0 -61.6334,-67.78979 64.786367,64.786367 0 0 0 -39.58326,11.26303 c -0.004,0.0151 -0.006,0.0222 -0.0178,0.0443 a 64.786367,64.786367 0 0 0 -1.80335,1.23414 c -1.37528,0.99706 -2.69251,2.04951 -3.94059,3.14495 a 64.786367,64.786367 0 0 0 -1.28333,1.14551 c -0.003,0.0113 -0.006,0.0222 -0.01,0.0443 a 64.786367,64.786367 0 0 0 -19.42134,33.10644 c -7.5607,22.56949 -9.35147,45.41107 -20.81597,49.96499 -12.87015,7.07847 -30.65673,-7.29672 -54.66509,-17.50908 a 89.124259,89.124259 0 0 0 -36.16747,-9.67216 89.124259,89.124259 0 0 0 -93.25819,84.78748 89.124259,89.124259 0 0 0 84.78647,93.25874 89.124259,89.124259 0 0 0 93.25891,-84.79103 89.124259,89.124259 0 0 0 -0.006,-7.42855 c 2.27771,-20.57936 2.19819,-37.60873 13.0497,-43.52618 9.4849,-6.83253 28.11568,2.49576 49.6789,8.41587 a 64.786367,64.786367 0 0 0 24.09876,5.9467 64.786367,64.786367 0 0 0 65.8915,-48.83897 z"
             style="fill:#8bc34a;fill-opacity:1;stroke-width:2.12810969;filter:url(#filter1206)"
             transform="matrix(-0.04502023,0.00318296,-0.00318296,-0.04502023,29.395864,1042.7256)" />
          <circle
             r="28.880474"
             transform="matrix(0.03075097,-0.03303528,0.03303528,0.03075097,29.395864,1042.7256)"
             cy="-488.61301"
             cx="416.25522"
             id="path4059-3-62-2-5-9-2"
             style="fill:#26a69a;fill-opacity:1;stroke-width:1.4023416;filter:url(#filter1206)" />
          <path
             inkscape:connector-curvature="0"
             id="path4059-3-6-61-0-9-7-5"
             d="m 581.1641,454.13583 a 70.999055,70.999055 0 0 0 -54.22259,-10.83851 70.999055,70.999055 0 0 0 -41.27314,25.45211 c -0.70791,0.87077 -1.37306,1.76591 -2.00896,2.66836 a 70.999055,70.999055 0 0 0 -1.68548,2.42065 c -2.2e-4,-4.5e-4 4.4e-4,0 0,0 a 70.999055,70.999055 0 0 0 -11.60837,40.9028 c -1.81333,25.83165 2.30441,50.31418 -8.57008,58.21046 -11.73981,11.00247 -34.51381,0.58495 -62.76028,-3.74895 a 97.670827,97.670827 0 0 0 -41.05781,-0.4653 97.670827,97.670827 0 0 0 -76.01613,115.32948 97.670827,97.670827 0 0 0 115.32944,76.01401 97.670827,97.670827 0 0 0 76.01615,-115.32948 97.670827,97.670827 0 0 0 -2.02094,-7.88499 c -3.165,-22.46735 -7.87606,-40.53367 2.0391,-49.75937 8.21462,-9.8235 30.51641,-4.9873 55.00534,-4.54705 a 70.999055,70.999055 0 0 0 27.23241,-0.23264 70.999055,70.999055 0 0 0 55.26143,-83.83806 70.999055,70.999055 0 0 0 -29.61715,-44.416 z"
             style="fill:#26a69a;fill-opacity:1;stroke-width:3.44748163;filter:url(#filter1206)"
             transform="matrix(-0.04502023,0.00318296,-0.00318296,-0.04502023,29.395864,1042.7256)" />
          <circle
             r="28.880474"
             transform="matrix(0.01845799,0.04118562,-0.04118562,0.01845799,29.395864,1042.7256)"
             cy="229.11716"
             cx="-617.44806"
             id="path4059-3-62-2-5-9-2-4-2"
             style="fill:#fdd835;fill-opacity:1;stroke-width:1.4023416;filter:url(#filter1206)" />
          <path
             inkscape:connector-curvature="0"
             id="path4059-3-6-61-0-9-7-9-7-2"
             d="m 319.66981,487.49375 a 40.617922,40.617922 0 0 0 31.59401,1.55985 40.617922,40.617922 0 0 0 24.19149,-52.10246 40.617922,40.617922 0 0 0 -16.16335,-20.1535 40.617922,40.617922 0 0 0 -1.71805,-1.05689 c -0.5681,-0.2681 -1.06486,-0.67579 -1.62632,-0.94167 a 40.617922,40.617922 0 0 0 -25.68642,-3.90183 c -14.7753,1.15216 -28.28806,5.55319 -33.67543,0.0665 -7.215,-5.71383 -3.24379,-19.4755 -3.1771,-35.8189 a 55.876605,55.876605 0 0 0 -3.20146,-23.28006 55.876605,55.876605 0 0 0 -71.67487,-33.27639 55.876605,55.876605 0 0 0 -33.27469,71.67258 55.876605,55.876605 0 0 0 71.67475,33.27638 55.876605,55.876605 0 0 0 4.2828,-1.80579 c 12.45045,-3.6878 22.27496,-7.8841 28.33442,-3.05101 6.25372,3.82052 5.39441,16.85699 7.21591,30.75626 a 40.617922,40.617922 0 0 0 2.42342,15.37491 40.617922,40.617922 0 0 0 20.5063,22.62954 z"
             style="fill:#fdd835;fill-opacity:1;stroke-width:1.97227335;filter:url(#filter1206)"
             transform="matrix(-0.04502023,0.00318296,-0.00318296,-0.04502023,29.395864,1042.7256)" />
          <circle
             r="28.880474"
             transform="matrix(0.03429472,0.02933981,-0.02933981,0.03429472,29.395864,1042.7256)"
             cy="6.5531631"
             cx="-183.90088"
             id="path4059-3-62-2-5-9-2-4-0-5"
             style="fill:#5c6bc0;fill-opacity:1;stroke-width:1.4023416;filter:url(#filter1206)" />
          <path
             inkscape:connector-curvature="0"
             id="path4059-3-6-61-0-9-7-9-7-3-0"
             d="m 776.58731,857.85216 a 71.431412,71.326616 67.711564 0 0 3.7523,55.50022 71.431412,71.326616 67.711564 0 0 95.83621,31.66381 71.431412,71.326616 67.711564 0 0 31.53408,-95.90716 71.431412,71.326616 67.711564 0 0 -2.93655,-5.18251 c -6.52814,-15.25526 -13.29407,-27.10856 -8.06924,-35.51268 3.91433,-8.50294 20.57009,-9.33671 37.92469,-13.70118 a 51.925051,51.848874 67.711564 0 0 19.13594,-5.34248 51.925051,51.848874 67.711564 0 0 22.92786,-69.71811 51.925051,51.848874 67.711564 0 0 -69.6724,-23.0164 51.925051,51.848874 67.711564 0 0 -23.14839,23.49189 51.925051,51.848874 67.711564 0 0 -1.08569,2.33667 c -0.25613,0.7622 -0.69861,1.45571 -0.9523,2.20683 a 51.925051,51.848874 67.711564 0 0 -1.12513,33.18244 c 3.65981,18.58944 11.24934,35.09658 5.09264,42.74692 -6.17463,10.00984 -24.23423,6.98542 -44.98755,9.32053 a 71.431412,71.326616 67.711564 0 0 -29.00561,7.50146 71.431412,71.326616 67.711564 0 0 -35.28544,40.40737 z"
             style="fill:#5c6bc0;fill-opacity:1;stroke-width:2.5194602;filter:url(#filter1206)"
             transform="matrix(-0.04502023,0.00318296,-0.00318296,-0.04502023,29.395864,1042.7256)" />
          <circle
             transform="matrix(0.04502023,-0.00318296,0.00318296,0.04502023,29.395864,1042.7256)"
             r="42.6917"
             cy="-295.19565"
             cx="-56.557926"
             id="path4059-3-62-7-3"
             style="fill:#03a9f4;fill-opacity:1;stroke-width:1.40234137;filter:url(#filter1206)" />
          <circle
             r="28.880474"
             transform="matrix(0.01845799,0.04118562,-0.04118562,0.01845799,29.395864,1042.7256)"
             cy="261.66962"
             cx="-295.42877"
             id="path4059-3-62-2-5-9-2-4-3-7"
             style="fill:#fdd835;fill-opacity:1;stroke-width:1.4023416;filter:url(#filter1206)" />
          <path
             inkscape:connector-curvature="0"
             id="path4059-3-6-61-0-9-7-9-95-8"
             d="m 860.41345,0.06810258 a 55.876605,55.876605 0 0 0 -40.87032,14.94728642 55.876605,55.876605 0 0 0 -2.74863,78.97461 55.876605,55.876605 0 0 0 3.33058,3.237571 c 8.24433,10.03377 15.93345,17.45412 13.8406,24.91768 -1.08348,7.24842 -13.42624,11.53047 -25.52113,18.62002 a 40.617922,40.617922 0 0 0 -13.21761,8.21624 40.617922,40.617922 0 0 0 -1.99877,57.40727 40.617922,40.617922 0 0 0 57.40896,1.99856 40.617922,40.617922 0 0 0 12.56922,-24.7298 c 0.0864,-0.6359 0.14402,-1.2718 0.18612,-1.89884 a 40.617922,40.617922 0 0 0 0.10192,-1.69279 c 1.4e-4,0 -1.5e-4,0 0,0 a 40.617922,40.617922 0 0 0 -6.52191,-23.42963 c -6.81317,-13.1559 -16.1207,-23.8845 -13.16372,-30.98115 2.4545,-8.87363 16.68835,-10.57129 31.7772,-16.87915 a 55.876605,55.876605 0 0 0 20.17581,-12.002849 55.876605,55.876605 0 0 0 2.74866,-78.97461 55.876605,55.876605 0 0 0 -38.10305,-17.6951889 z"
             style="fill:#ef5350;fill-opacity:0.99029122;stroke-width:1.97227335;filter:url(#filter1206-7)"
             transform="matrix(-0.04502023,0.00318296,-0.00318296,-0.04502023,22.122602,949.88332)" />
          <path
             inkscape:connector-curvature="0"
             id="path4059-3-6-2-2"
             d="m 353.96568,368.79819 a 101.96644,101.96644 0 0 0 142.84774,19.69929 101.96644,101.96644 0 0 0 6.51112,-5.44396 c 19.74642,-13.09608 34.64394,-25.66925 47.80099,-20.47965 12.9554,3.31645 18.43195,26.51298 29.04142,49.79083 a 74.121624,74.121624 0 0 0 12.45942,25.53121 74.121624,74.121624 0 0 0 103.83838,14.32135 74.121624,74.121624 0 0 0 14.32499,-103.84067 74.121624,74.121624 0 0 0 -38.97989,-26.51254 74.121624,74.121624 0 0 0 -2.46649,-0.68686 c -1.87935,-0.47416 -3.74239,-0.85526 -5.60548,-1.14551 a 74.121624,74.121624 0 0 0 -1.96399,-0.28583 74.121624,74.121624 0 0 0 -43.35418,7.22515 c -25.36243,9.91634 -46.73109,25.09982 -59.14154,18.36766 -15.64955,-6.108 -16.07501,-32.25584 -24.71209,-60.81524 A 101.96644,101.96644 0 0 0 516.52562,245.64444 101.96644,101.96644 0 0 0 373.67553,225.94205 101.96644,101.96644 0 0 0 353.97312,368.79199 Z"
             style="fill:#fb8c00;fill-opacity:1;stroke-width:2.43475485;filter:url(#filter1206-7)"
             transform="matrix(-0.04502023,0.00318296,-0.00318296,-0.04502023,22.122602,949.88332)" />
          <circle
             r="52.702545"
             cy="448.62402"
             cx="-787.59534"
             id="path4059-3-1-5"
             style="fill:#fb8c00;fill-opacity:1;stroke-width:1.73117852;filter:url(#filter1206-7)"
             transform="matrix(0.02972317,0.033963,-0.033963,0.02972317,22.122602,949.88332)" />
          <circle
             transform="matrix(0.04502023,-0.00318296,0.00318296,0.04502023,22.12267,949.88322)"
             r="42.6917"
             cy="-642.50525"
             cx="-873.43854"
             id="path4059-3-62-8-5"
             style="fill:#03a9f4;fill-opacity:1;stroke-width:1.40234137;filter:url(#filter1206-7)" />
          <path
             inkscape:connector-curvature="0"
             id="path4059-3-6-61-96-7"
             d="m 813.01204,724.0839 a 60.042227,60.042227 0 0 0 -31.56223,-24.83504 c -1.46701,-0.51182 -2.93482,-0.94167 -4.40702,-1.30504 a 60.042227,60.042227 0 0 0 -37.09502,2.43372 c -21.1602,6.23429 -39.4604,17.00367 -49.00681,10.70512 -12.20064,-6.01783 -10.73235,-27.13825 -15.70758,-50.77948 a 82.59792,82.59792 0 0 0 -11.85152,-32.65975 82.59792,82.59792 0 0 0 -113.91318,-25.85404 82.59792,82.59792 0 0 0 -25.85384,113.91498 82.59792,82.59792 0 0 0 113.91505,25.85271 82.59792,82.59792 0 0 0 5.64357,-3.94859 c 16.84321,-9.19136 29.73845,-18.28944 39.99293,-13.18647 10.22214,3.58011 13.03113,22.67761 19.96966,42.20252 a 60.042227,60.042227 0 0 0 8.27413,21.4745 60.042227,60.042227 0 0 0 82.80816,18.79395 60.042227,60.042227 0 0 0 18.79357,-82.80843 z"
             style="fill:#03a9f4;fill-opacity:1;stroke-width:1.97227335;filter:url(#filter1206-7)"
             transform="matrix(-0.04502023,0.00318296,-0.00318296,-0.04502023,22.122602,949.88332)" />
          <circle
             r="42.6917"
             transform="matrix(0.01147533,0.04364939,-0.04364939,0.01147533,22.122621,949.88332)"
             cy="829.26276"
             cx="-419.56067"
             id="path4059-3-62-2-7-1"
             style="fill:#ec407a;fill-opacity:1;stroke-width:1.40234137;filter:url(#filter1206-7)" />
          <path
             inkscape:connector-curvature="0"
             id="path4059-3-6-61-0-4-2"
             d="m 609.72452,25.020794 a 82.59792,82.59792 0 0 0 -16.43103,1.431338 82.59792,82.59792 0 0 0 -65.85079,96.480358 82.59792,82.59792 0 0 0 96.48301,65.8504 82.59792,82.59792 0 0 0 6.67996,-1.59752 c 19.04964,-2.36813 34.39059,-6.10844 42.05964,2.40403 8.20054,7.08401 3.79074,25.89613 3.09016,46.61663 a 60.042227,60.042227 0 0 0 -0.18169,22.98449 60.042227,60.042227 0 0 0 70.13307,47.86628 60.042227,60.042227 0 0 0 47.86681,-70.13267 60.042227,60.042227 0 0 0 -18.69566,-33.29876 60.042227,60.042227 0 0 0 -1.54035,-1.38702 c -1.18318,-1.02587 -2.40018,-1.96754 -3.64367,-2.85049 A 60.042227,60.042227 0 0 0 734.30793,188.0537 c -21.97164,-1.96532 -42.94829,1.32942 -49.51773,-8.02413 -9.14312,-10.07852 -0.0145,-29.19264 4.02957,-53.01666 a 82.59792,82.59792 0 0 0 0.95496,-34.715922 82.59792,82.59792 0 0 0 -80.05201,-67.276416 z"
             style="fill:#ec407a;fill-opacity:1;stroke-width:1.97227335;filter:url(#filter1206-7)"
             transform="matrix(-0.04502023,0.00318296,-0.00318296,-0.04502023,22.122602,949.88332)" />
          <circle
             r="42.6917"
             transform="matrix(-0.01147533,-0.04364939,0.04364939,-0.01147533,22.122604,949.88332)"
             cy="-122.03455"
             cx="553.1203"
             id="path4059-3-62-2-5-7-8"
             style="fill:#8bc34a;fill-opacity:1;stroke-width:1.40234137;filter:url(#filter1206-7)" />
          <path
             inkscape:connector-curvature="0"
             id="path4059-3-6-61-0-9-1-9"
             d="m 994.36452,461.88987 a 64.786367,64.786367 0 0 0 1.89774,-12.79563 64.786367,64.786367 0 0 0 -61.6334,-67.78979 64.786367,64.786367 0 0 0 -39.58326,11.26303 c -0.004,0.0151 -0.006,0.0222 -0.0178,0.0443 a 64.786367,64.786367 0 0 0 -1.80335,1.23414 c -1.37528,0.99706 -2.69251,2.04951 -3.94059,3.14495 a 64.786367,64.786367 0 0 0 -1.28333,1.14551 c -0.003,0.0113 -0.006,0.0222 -0.01,0.0443 a 64.786367,64.786367 0 0 0 -19.42134,33.10644 c -7.5607,22.56949 -9.35147,45.41107 -20.81597,49.96499 -12.87015,7.07847 -30.65673,-7.29672 -54.66509,-17.50908 a 89.124259,89.124259 0 0 0 -36.16747,-9.67216 89.124259,89.124259 0 0 0 -93.25819,84.78748 89.124259,89.124259 0 0 0 84.78647,93.25874 89.124259,89.124259 0 0 0 93.25891,-84.79103 89.124259,89.124259 0 0 0 -0.006,-7.42855 c 2.27771,-20.57936 2.19819,-37.60873 13.0497,-43.52618 9.4849,-6.83253 28.11568,2.49576 49.6789,8.41587 a 64.786367,64.786367 0 0 0 24.09876,5.9467 64.786367,64.786367 0 0 0 65.8915,-48.83897 z"
             style="fill:#8bc34a;fill-opacity:1;stroke-width:2.12810969;filter:url(#filter1206-7)"
             transform="matrix(-0.04502023,0.00318296,-0.00318296,-0.04502023,22.122602,949.88332)" />
          <circle
             r="28.880474"
             transform="matrix(0.03075097,-0.03303528,0.03303528,0.03075097,22.122597,949.88332)"
             cy="-488.61301"
             cx="416.25522"
             id="path4059-3-62-2-5-9-2-0"
             style="fill:#26a69a;fill-opacity:1;stroke-width:1.4023416;filter:url(#filter1206-7)" />
          <path
             inkscape:connector-curvature="0"
             id="path4059-3-6-61-0-9-7-5-1"
             d="m 581.1641,454.13583 a 70.999055,70.999055 0 0 0 -54.22259,-10.83851 70.999055,70.999055 0 0 0 -41.27314,25.45211 c -0.70791,0.87077 -1.37306,1.76591 -2.00896,2.66836 a 70.999055,70.999055 0 0 0 -1.68548,2.42065 c -2.2e-4,-4.5e-4 4.4e-4,0 0,0 a 70.999055,70.999055 0 0 0 -11.60837,40.9028 c -1.81333,25.83165 2.30441,50.31418 -8.57008,58.21046 -11.73981,11.00247 -34.51381,0.58495 -62.76028,-3.74895 a 97.670827,97.670827 0 0 0 -41.05781,-0.4653 97.670827,97.670827 0 0 0 -76.01613,115.32948 97.670827,97.670827 0 0 0 115.32944,76.01401 97.670827,97.670827 0 0 0 76.01615,-115.32948 97.670827,97.670827 0 0 0 -2.02094,-7.88499 c -3.165,-22.46735 -7.87606,-40.53367 2.0391,-49.75937 8.21462,-9.8235 30.51641,-4.9873 55.00534,-4.54705 a 70.999055,70.999055 0 0 0 27.23241,-0.23264 70.999055,70.999055 0 0 0 55.26143,-83.83806 70.999055,70.999055 0 0 0 -29.61715,-44.416 z"
             style="fill:#26a69a;fill-opacity:1;stroke-width:3.44748163;filter:url(#filter1206-7)"
             transform="matrix(-0.04502023,0.00318296,-0.00318296,-0.04502023,22.122602,949.88332)" />
          <circle
             r="28.880474"
             transform="matrix(0.01845799,0.04118561,-0.04118561,0.01845799,22.122592,949.88332)"
             cy="229.11716"
             cx="-617.44806"
             id="path4059-3-62-2-5-9-2-4-2-8"
             style="fill:#fdd835;fill-opacity:1;stroke-width:1.4023416;filter:url(#filter1206-7)" />
          <path
             inkscape:connector-curvature="0"
             id="path4059-3-6-61-0-9-7-9-7-2-3"
             d="m 319.66981,487.49375 a 40.617922,40.617922 0 0 0 31.59401,1.55985 40.617922,40.617922 0 0 0 24.19149,-52.10246 40.617922,40.617922 0 0 0 -16.16335,-20.1535 40.617922,40.617922 0 0 0 -1.71805,-1.05689 c -0.5681,-0.2681 -1.06486,-0.67579 -1.62632,-0.94167 a 40.617922,40.617922 0 0 0 -25.68642,-3.90183 c -14.7753,1.15216 -28.28806,5.55319 -33.67543,0.0665 -7.215,-5.71383 -3.24379,-19.4755 -3.1771,-35.8189 a 55.876605,55.876605 0 0 0 -3.20146,-23.28006 55.876605,55.876605 0 0 0 -71.67487,-33.27639 55.876605,55.876605 0 0 0 -33.27469,71.67258 55.876605,55.876605 0 0 0 71.67475,33.27638 55.876605,55.876605 0 0 0 4.2828,-1.80579 c 12.45045,-3.6878 22.27496,-7.8841 28.33442,-3.05101 6.25372,3.82052 5.39441,16.85699 7.21591,30.75626 a 40.617922,40.617922 0 0 0 2.42342,15.37491 40.617922,40.617922 0 0 0 20.5063,22.62954 z"
             style="fill:#fdd835;fill-opacity:1;stroke-width:1.97227335;filter:url(#filter1206-7)"
             transform="matrix(-0.04502023,0.00318296,-0.00318296,-0.04502023,22.122602,949.88332)" />
          <circle
             r="28.880474"
             transform="matrix(0.03429472,0.02933981,-0.02933981,0.03429472,22.122598,949.88332)"
             cy="6.5531631"
             cx="-183.90088"
             id="path4059-3-62-2-5-9-2-4-0-5-0"
             style="fill:#5c6bc0;fill-opacity:1;stroke-width:1.4023416;filter:url(#filter1206-7)" />
          <path
             inkscape:connector-curvature="0"
             id="path4059-3-6-61-0-9-7-9-7-3-0-1"
             d="m 776.58731,857.85216 a 71.431412,71.326616 67.711564 0 0 3.7523,55.50022 71.431412,71.326616 67.711564 0 0 95.83621,31.66381 71.431412,71.326616 67.711564 0 0 31.53408,-95.90716 71.431412,71.326616 67.711564 0 0 -2.93655,-5.18251 c -6.52814,-15.25526 -13.29407,-27.10856 -8.06924,-35.51268 3.91433,-8.50294 20.57009,-9.33671 37.92469,-13.70118 a 51.925051,51.848874 67.711564 0 0 19.13594,-5.34248 51.925051,51.848874 67.711564 0 0 22.92786,-69.71811 51.925051,51.848874 67.711564 0 0 -69.6724,-23.0164 51.925051,51.848874 67.711564 0 0 -23.14839,23.49189 51.925051,51.848874 67.711564 0 0 -1.08569,2.33667 c -0.25613,0.7622 -0.69861,1.45571 -0.9523,2.20683 a 51.925051,51.848874 67.711564 0 0 -1.12513,33.18244 c 3.65981,18.58944 11.24934,35.09658 5.09264,42.74692 -6.17463,10.00984 -24.23423,6.98542 -44.98755,9.32053 a 71.431412,71.326616 67.711564 0 0 -29.00561,7.50146 71.431412,71.326616 67.711564 0 0 -35.28544,40.40737 z"
             style="fill:#5c6bc0;fill-opacity:1;stroke-width:2.5194602;filter:url(#filter1206-7)"
             transform="matrix(-0.04502023,0.00318296,-0.00318296,-0.04502023,22.122602,949.88332)" />
          <circle
             transform="matrix(0.04502023,-0.00318296,0.00318296,0.04502023,22.12267,949.88322)"
             r="42.6917"
             cy="-295.19565"
             cx="-56.557926"
             id="path4059-3-62-7-3-5"
             style="fill:#03a9f4;fill-opacity:1;stroke-width:1.40234137;filter:url(#filter1206-7)" />
          <circle
             r="28.880474"
             transform="matrix(0.01845799,0.04118561,-0.04118561,0.01845799,22.122592,949.88332)"
             cy="261.66962"
             cx="-295.42877"
             id="path4059-3-62-2-5-9-2-4-3-7-0"
             style="fill:#fdd835;fill-opacity:1;stroke-width:1.4023416;filter:url(#filter1206-7)" />
        </g>
      </g>
    </g>
    <g
       inkscape:groupmode="layer"
       id="layer2"
       inkscape:label="Layer 2" />
  </g>
</svg>
