<?xml version="1.0" encoding="UTF-8" standalone="no"?>
<!-- Created with Inkscape (http://www.inkscape.org/) -->

<svg
   xmlns:dc="http://purl.org/dc/elements/1.1/"
   xmlns:cc="http://creativecommons.org/ns#"
   xmlns:rdf="http://www.w3.org/1999/02/22-rdf-syntax-ns#"
   xmlns:svg="http://www.w3.org/2000/svg"
   xmlns="http://www.w3.org/2000/svg"
   xmlns:sodipodi="http://sodipodi.sourceforge.net/DTD/sodipodi-0.dtd"
   xmlns:inkscape="http://www.inkscape.org/namespaces/inkscape"
   width="1800"
   height="1800"
   viewBox="0 0 1800 1800"
   version="1.1"
   id="SVGRoot"
   sodipodi:docname="header-overlay.svg"
   inkscape:version="0.92.2 (5c3e80d, 2017-08-06)">
  <sodipodi:namedview
     id="base"
     pagecolor="#ffffff"
     bordercolor="#666666"
     borderopacity="1.0"
     inkscape:pageopacity="0.0"
     inkscape:pageshadow="2"
     inkscape:zoom="0.175"
     inkscape:cx="1031.6156"
     inkscape:cy="1489.0244"
     inkscape:document-units="px"
     inkscape:current-layer="g1202"
     showgrid="false"
     inkscape:window-width="1366"
     inkscape:window-height="715"
     inkscape:window-x="-8"
     inkscape:window-y="-8"
     inkscape:window-maximized="1"
     inkscape:snap-page="true"
     inkscape:snap-smooth-nodes="true"
     inkscape:measure-start="509.643,717.857"
     inkscape:measure-end="509.643,717.5"
     inkscape:snap-to-guides="true"
     inkscape:snap-grids="true"
     inkscape:snap-bbox="false"
     inkscape:object-paths="false"
     fit-margin-top="5"
     fit-margin-left="5"
     fit-margin-right="5"
     fit-margin-bottom="5" />
  <defs
     id="defs4025">
    <filter
       style="color-interpolation-filters:sRGB;"
       x="-0.15"
       width="1.3"
       y="-0.15"
       height="1.3"
       inkscape:label="Ink Blot"
       id="filter2748">
      <feGaussianBlur
         in="SourceGraphic"
         stdDeviation="10 10"
         result="blur1"
         id="feGaussianBlur2738" />
      <feTurbulence
         type="fractalNoise"
         baseFrequency="0.04"
         numOctaves="3"
         seed="0"
         result="turbulence"
         id="feTurbulence2740" />
      <feDisplacementMap
         in="blur1"
         in2="turbulence"
         xChannelSelector="R"
         yChannelSelector="G"
         scale="50"
         result="map"
         id="feDisplacementMap2742" />
      <feGaussianBlur
         in="map"
         stdDeviation="5"
         result="blur2"
         id="feGaussianBlur2744" />
      <feComposite
         in="blur2"
         in2="map"
         operator="over"
         result="composite"
         id="feComposite2746" />
    </filter>
  </defs>
  <metadata
     id="metadata4028">
    <rdf:RDF>
      <cc:Work
         rdf:about="">
        <dc:format>image/svg+xml</dc:format>
        <dc:type
           rdf:resource="http://purl.org/dc/dcmitype/StillImage" />
        <dc:title></dc:title>
      </cc:Work>
    </rdf:RDF>
  </metadata>
  <g
     id="layer1"
     inkscape:groupmode="layer"
     inkscape:label="Layer 1"
     transform="translate(0.57525128,839.27075)">
    <g
       id="g4565"
       transform="matrix(22.15693,0,0,22.15693,919.20095,-21199.165)"
       inkscape:export-xdpi="96"
       inkscape:export-ydpi="96">
      <g
         id="g1173">
        <g
           id="g1202">
          <g
             id="g2160"
             style="filter:url(#filter2748)"
             transform="matrix(1.1063711,0,0,1.1063711,4.7502269,-103.96969)">
            <path
               style="fill:#ef5350;fill-opacity:0.99029122;stroke-width:0.08901384"
               d="m -38.522621,938.58848 a 2.5218568,2.5218568 0 0 1 1.844584,0.67461 2.5218568,2.5218568 0 0 1 0.124053,3.56433 2.5218568,2.5218568 0 0 1 -0.150318,0.14612 c -0.372088,0.45285 -0.719118,0.78775 -0.624662,1.1246 0.0489,0.32714 0.605961,0.5204 1.151835,0.84037 a 1.8331927,1.8331927 0 0 1 0.596545,0.37082 1.8331927,1.8331927 0 0 1 0.09021,2.59094 1.8331927,1.8331927 0 0 1 -2.591016,0.0902 1.8331927,1.8331927 0 0 1 -0.567282,-1.11612 c -0.0039,-0.0287 -0.0065,-0.0574 -0.0084,-0.0857 a 1.8331927,1.8331927 0 0 1 -0.0046,-0.0764 c -6e-6,0 7e-6,0 0,0 a 1.8331927,1.8331927 0 0 1 0.294351,-1.05744 c 0.307496,-0.59376 0.727569,-1.07797 0.594113,-1.39826 -0.110778,-0.40049 -0.753189,-0.47711 -1.434188,-0.7618 a 2.5218568,2.5218568 0 0 1 -0.910587,-0.54172 2.5218568,2.5218568 0 0 1 -0.124054,-3.56433 2.5218568,2.5218568 0 0 1 1.71969,-0.79863 z"
               id="path4059-3-6-61-0-9-7-9"
               inkscape:connector-curvature="0" />
            <path
               style="fill:#fb8c00;fill-opacity:1;stroke-width:0.10988683"
               d="m -15.665313,955.23023 a 4.6020111,4.6020111 0 0 1 -6.447091,0.88908 4.6020111,4.6020111 0 0 1 -0.293864,-0.2457 c -0.891207,-0.59106 -1.563571,-1.15852 -2.157383,-0.9243 -0.584711,0.14968 -0.831882,1.1966 -1.310715,2.24719 a 3.3453021,3.3453021 0 0 1 -0.562326,1.15229 3.3453021,3.3453021 0 0 1 -4.686497,0.64636 3.3453021,3.3453021 0 0 1 -0.646524,-4.6866 3.3453021,3.3453021 0 0 1 1.759264,-1.19658 3.3453021,3.3453021 0 0 1 0.111319,-0.031 c 0.08482,-0.0214 0.168904,-0.0386 0.25299,-0.0517 a 3.3453021,3.3453021 0 0 1 0.08864,-0.0129 3.3453021,3.3453021 0 0 1 1.956687,0.32609 c 1.144673,0.44755 2.109096,1.13282 2.669212,0.82898 0.706305,-0.27567 0.725507,-1.45579 1.115321,-2.74475 a 4.6020111,4.6020111 0 0 1 0.814213,-1.75471 4.6020111,4.6020111 0 0 1 6.447197,-0.88922 4.6020111,4.6020111 0 0 1 0.889221,6.44719 z"
               id="path4059-3-6"
               inkscape:connector-curvature="0" />
            <circle
               transform="matrix(0.60386344,-0.79708779,-0.79708779,-0.60386344,0,0)"
               style="fill:#fb8c00;fill-opacity:1;stroke-width:0.0781326"
               id="path4059-3"
               cx="-783.49396"
               cy="-546.77698"
               r="2.3786032" />
            <circle
               style="fill:#03a9f4;fill-opacity:1;stroke-width:0.06329132"
               id="path4059-3-62"
               cx="-39.110481"
               cy="-967.58331"
               r="1.9267876"
               transform="scale(1,-1)" />
            <path
               style="fill:#03a9f4;fill-opacity:1;stroke-width:0.08901384"
               d="m -36.383272,971.2652 a 2.7098622,2.7098622 0 0 1 1.424486,-1.12087 c 0.06621,-0.0231 0.132456,-0.0425 0.1989,-0.0589 a 2.7098622,2.7098622 0 0 1 1.674195,0.10984 c 0.955015,0.28137 1.780951,0.76742 2.211805,0.48315 0.550647,-0.2716 0.484379,-1.22482 0.708924,-2.29181 a 3.7278594,3.7278594 0 0 1 0.53489,-1.47402 3.7278594,3.7278594 0 0 1 5.141199,-1.16686 3.7278594,3.7278594 0 0 1 1.166851,5.14128 3.7278594,3.7278594 0 0 1 -5.141283,1.1668 3.7278594,3.7278594 0 0 1 -0.254709,-0.17821 c -0.760178,-0.41483 -1.342174,-0.82545 -1.804985,-0.59514 -0.461352,0.16158 -0.588129,1.0235 -0.901283,1.90471 a 2.7098622,2.7098622 0 0 1 -0.373433,0.9692 2.7098622,2.7098622 0 0 1 -3.737348,0.84822 2.7098622,2.7098622 0 0 1 -0.848203,-3.73736 z"
               id="path4059-3-6-61"
               inkscape:connector-curvature="0" />
            <circle
               style="fill:#ec407a;fill-opacity:1;stroke-width:0.06329132"
               id="path4059-3-62-2"
               cx="-941.18842"
               cy="-136.90863"
               transform="matrix(0.18541811,-0.98265972,-0.98265972,-0.18541811,0,0)"
               r="1.9267876" />
            <path
               style="fill:#ec407a;fill-opacity:1;stroke-width:0.08901384"
               d="m -27.208376,939.71466 a 3.7278594,3.7278594 0 0 1 0.741575,0.0646 3.7278594,3.7278594 0 0 1 2.972018,4.35441 3.7278594,3.7278594 0 0 1 -4.35453,2.972 3.7278594,3.7278594 0 0 1 -0.301484,-0.0721 c -0.85976,-0.10688 -1.552137,-0.27569 -1.898261,0.1085 -0.370112,0.31972 -0.171086,1.16876 -0.139467,2.10393 a 2.7098622,2.7098622 0 0 1 0.0082,1.03735 2.7098622,2.7098622 0 0 1 -3.165288,2.16033 2.7098622,2.7098622 0 0 1 -2.160354,-3.16527 2.7098622,2.7098622 0 0 1 0.843784,-1.50286 2.7098622,2.7098622 0 0 1 0.06952,-0.0626 c 0.0534,-0.0463 0.108326,-0.0888 0.164448,-0.12865 a 2.7098622,2.7098622 0 0 1 1.597065,-0.51154 c 0.991637,-0.0887 1.938368,0.06 2.234864,-0.36215 0.412653,-0.45487 6.52e-4,-1.31754 -0.181865,-2.39278 a 3.7278594,3.7278594 0 0 1 -0.0431,-1.56682 3.7278594,3.7278594 0 0 1 3.612956,-3.03636 z"
               id="path4059-3-6-61-0"
               inkscape:connector-curvature="0" />
            <circle
               style="fill:#8bc34a;fill-opacity:1;stroke-width:0.06329132"
               id="path4059-3-62-2-5"
               cx="947.21631"
               cy="168.82768"
               transform="matrix(-0.18541811,0.98265972,0.98265972,0.18541811,0,0)"
               r="1.9267876" />
            <path
               style="fill:#8bc34a;fill-opacity:1;stroke-width:0.09604713"
               d="m -44.568182,959.4317 a 2.9239776,2.9239776 0 0 1 -0.08565,-0.5775 2.9239776,2.9239776 0 0 1 2.781676,-3.05953 2.9239776,2.9239776 0 0 1 1.786496,0.50833 c 1.62e-4,6.8e-4 2.68e-4,10e-4 8.05e-4,0.002 a 2.9239776,2.9239776 0 0 1 0.08139,0.0557 c 0.06207,0.045 0.12152,0.0925 0.177849,0.14194 a 2.9239776,2.9239776 0 0 1 0.05792,0.0517 c 1.24e-4,5.1e-4 2.72e-4,10e-4 4.39e-4,0.002 a 2.9239776,2.9239776 0 0 1 0.876536,1.49418 c 0.341234,1.01862 0.422056,2.04952 0.939479,2.25505 0.580863,0.31947 1.383618,-0.32932 2.467178,-0.79023 a 4.0224101,4.0224101 0 0 1 1.632332,-0.43653 4.0224101,4.0224101 0 0 1 4.208985,3.82668 4.0224101,4.0224101 0 0 1 -3.826634,4.20901 4.0224101,4.0224101 0 0 1 -4.209018,-3.82684 4.0224101,4.0224101 0 0 1 2.55e-4,-0.33527 c -0.102799,-0.9288 -0.09921,-1.69738 -0.588967,-1.96445 -0.428078,-0.30837 -1.268934,0.11264 -2.242138,0.37983 a 2.9239776,2.9239776 0 0 1 -1.08764,0.26839 2.9239776,2.9239776 0 0 1 -2.973855,-2.20423 z"
               id="path4059-3-6-61-0-9"
               inkscape:connector-curvature="0" />
            <circle
               style="fill:#26a69a;fill-opacity:1;stroke-width:0.06329133"
               id="path4059-3-62-2-5-9"
               cx="659.20953"
               cy="-708.2019"
               transform="matrix(0.7312718,0.68208618,0.68208618,-0.7312718,0,0)"
               r="1.3034511" />
            <path
               style="fill:#26a69a;fill-opacity:1;stroke-width:0.15559383"
               d="m -25.91937,959.08174 a 3.2043724,3.2043724 0 0 1 2.447207,-0.48917 3.2043724,3.2043724 0 0 1 1.862764,1.14872 c 0.03195,0.0393 0.06197,0.0797 0.09067,0.12043 a 3.2043724,3.2043724 0 0 1 0.07607,0.10925 c 10e-6,-2e-5 -2e-5,0 0,0 a 3.2043724,3.2043724 0 0 1 0.523916,1.84605 c 0.08184,1.16585 -0.104004,2.27081 0.38679,2.62719 0.529848,0.49657 1.557698,0.0264 2.832535,-0.1692 a 4.408139,4.408139 0 0 1 1.853046,-0.021 4.408139,4.408139 0 0 1 3.430806,5.20512 4.408139,4.408139 0 0 1 -5.205118,3.43071 4.408139,4.408139 0 0 1 -3.430807,-5.20512 4.408139,4.408139 0 0 1 0.09121,-0.35587 c 0.142845,-1.01401 0.355467,-1.82939 -0.09203,-2.24577 -0.370747,-0.44336 -1.377285,-0.22509 -2.482534,-0.20522 a 3.2043724,3.2043724 0 0 1 -1.22907,-0.0105 3.2043724,3.2043724 0 0 1 -2.494092,-3.78383 3.2043724,3.2043724 0 0 1 1.336699,-2.00461 z"
               id="path4059-3-6-61-0-9-7"
               inkscape:connector-curvature="0" />
            <circle
               style="fill:#fdd835;fill-opacity:1;stroke-width:0.06329133"
               id="path4059-3-62-2-5-9-2-4"
               cx="-909.20215"
               cy="-312.44577"
               transform="matrix(0.34359708,-0.93911716,-0.93911716,-0.34359708,0,0)"
               r="1.3034511" />
            <path
               style="fill:#fdd835;fill-opacity:1;stroke-width:0.08901384"
               d="m -14.117451,960.58727 a 1.8331927,1.8331927 0 0 1 -1.42592,0.0704 1.8331927,1.8331927 0 0 1 -1.091825,-2.35152 1.8331927,1.8331927 0 0 1 0.729494,-0.90958 1.8331927,1.8331927 0 0 1 0.07754,-0.0477 c 0.02564,-0.0121 0.04806,-0.0305 0.0734,-0.0425 a 1.8331927,1.8331927 0 0 1 1.159295,-0.1761 c 0.666848,0.052 1.276714,0.25063 1.51986,0.003 0.325632,-0.25788 0.146401,-0.87898 0.143391,-1.6166 a 2.5218568,2.5218568 0 0 1 0.14449,-1.05069 2.5218568,2.5218568 0 0 1 3.2348743,-1.50185 2.5218568,2.5218568 0 0 1 1.501773,3.23477 2.5218568,2.5218568 0 0 1 -3.2348683,1.50185 2.5218568,2.5218568 0 0 1 -0.193294,-0.0815 c -0.561921,-0.16644 -1.005327,-0.35583 -1.278806,-0.1377 -0.282247,0.17243 -0.243464,0.7608 -0.325673,1.38811 a 1.8331927,1.8331927 0 0 1 -0.109375,0.69391 1.8331927,1.8331927 0 0 1 -0.925503,1.02133 z"
               id="path4059-3-6-61-0-9-7-9-7"
               inkscape:connector-curvature="0" />
            <circle
               style="fill:#5c6bc0;fill-opacity:1;stroke-width:0.06329133"
               id="path4059-3-62-2-5-9-2-4-0"
               cx="-667.01349"
               cy="-668.31409"
               transform="matrix(0.71212714,-0.70205052,-0.70205052,-0.71212714,0,0)"
               r="1.3034511" />
            <path
               style="fill:#5c6bc0;fill-opacity:1;stroke-width:0.11370981"
               d="m -34.739329,977.30251 a 3.2191561,3.2238858 22.288436 0 1 -0.169351,2.50487 3.2191561,3.2238858 22.288436 0 1 -4.325338,1.42907 3.2191561,3.2238858 22.288436 0 1 -1.423215,-4.32854 3.2191561,3.2238858 22.288436 0 1 0.132534,-0.2339 c 0.294632,-0.68851 0.599996,-1.22348 0.364186,-1.60278 -0.176664,-0.38376 -0.928382,-0.42139 -1.71164,-0.61837 a 2.3400748,2.3435129 22.288436 0 1 -0.863655,-0.24112 2.3400748,2.3435129 22.288436 0 1 -1.034794,-3.14656 2.3400748,2.3435129 22.288436 0 1 3.144497,-1.03879 2.3400748,2.3435129 22.288436 0 1 1.044747,1.06025 2.3400748,2.3435129 22.288436 0 1 0.049,0.10546 c 0.01156,0.0344 0.03153,0.0657 0.04298,0.0996 a 2.3400748,2.3435129 22.288436 0 1 0.05078,1.49761 c -0.165177,0.83899 -0.507712,1.584 -0.229844,1.92928 0.278677,0.45177 1.093754,0.31527 2.030405,0.42066 a 3.2191561,3.2238858 22.288436 0 1 1.309099,0.33856 3.2191561,3.2238858 22.288436 0 1 1.592524,1.82369 z"
               id="path4059-3-6-61-0-9-7-9-7-3"
               inkscape:connector-curvature="0" />
            <circle
               style="fill:#03a9f4;fill-opacity:1;stroke-width:0.06329132"
               id="path4059-3-62-7"
               cx="-2.2425261"
               cy="-951.90833"
               r="1.9267876"
               transform="scale(1,-1)" />
            <circle
               style="fill:#fdd835;fill-opacity:1;stroke-width:0.06329133"
               id="path4059-3-62-2-5-9-2-4-3"
               cx="-894.66858"
               cy="-310.97659"
               transform="matrix(0.34359708,-0.93911716,-0.93911716,-0.34359708,0,0)"
               r="1.3034511" />
            <path
               style="fill:#ef5350;fill-opacity:0.99029122;stroke-width:0.08901384"
               d="m 31.613776,983.38363 a 2.5218568,2.5218568 0 0 1 1.198059,-1.55635 2.5218568,2.5218568 0 0 1 3.436668,0.95349 2.5218568,2.5218568 0 0 1 0.09416,0.1873 c 0.320003,0.49104 0.53505,0.92274 0.884713,0.93394 0.326704,0.052 0.678529,-0.42145 1.147836,-0.84584 a 1.8331927,1.8331927 0 0 1 0.53304,-0.45743 1.8331927,1.8331927 0 0 1 2.498153,0.69306 1.8331927,1.8331927 0 0 1 -0.6931,2.49821 1.8331927,1.8331927 0 0 1 -1.235047,0.2054 c -0.02854,0 -0.0567,-0.011 -0.08426,-0.018 a 1.8331927,1.8331927 0 0 1 -0.07425,-0.019 c -2e-6,0 2e-6,0 0,0 a 1.8331927,1.8331927 0 0 1 -0.919987,-0.5987 c -0.473815,-0.4718 -0.809298,-1.018 -1.154895,-0.9871 -0.415265,-0.015 -0.681514,0.5749 -1.157806,1.1388 a 2.5218568,2.5218568 0 0 1 -0.790464,0.7055 2.5218568,2.5218568 0 0 1 -3.436669,-0.9535 2.5218568,2.5218568 0 0 1 -0.244552,-1.88022 z"
               id="path4059-3-6-61-0-9-7-9-9"
               inkscape:connector-curvature="0" />
            <circle
               style="fill:#ec407a;fill-opacity:1;stroke-width:0.06329132"
               id="path4059-3-62-2-1"
               cx="-504.07437"
               cy="851.11444"
               transform="matrix(-0.8814245,-0.47232495,-0.47232495,0.8814245,0,0)"
               r="1.9267877" />
            <path
               style="fill:#ec407a;fill-opacity:1;stroke-width:0.08901384"
               d="m 36.090057,972.93168 a 3.7278594,3.7278594 0 0 1 0.284604,-0.68783 3.7278594,3.7278594 0 0 1 5.046573,-1.52508 3.7278594,3.7278594 0 0 1 1.525031,5.04668 3.7278594,3.7278594 0 0 1 -0.15942,0.26585 c -0.360466,0.78783 -0.729663,1.3974 -0.467334,1.84303 0.193629,0.44912 1.063221,0.51462 1.964618,0.76567 a 2.7098622,2.7098622 0 0 1 0.991805,0.30411 2.7098622,2.7098622 0 0 1 1.108535,3.66841 2.7098622,2.7098622 0 0 1 -3.668399,1.10859 2.7098622,2.7098622 0 0 1 -1.179577,-1.25667 2.7098622,2.7098622 0 0 1 -0.0388,-0.0851 c -0.0281,-0.0648 -0.05212,-0.13001 -0.07325,-0.19552 a 2.7098622,2.7098622 0 0 1 -0.0076,-1.67697 c 0.213593,-0.97241 0.640096,-1.83061 0.326641,-2.24033 -0.309732,-0.53033 -1.256366,-0.39681 -2.336725,-0.54607 a 3.7278594,3.7278594 0 0 1 -1.507264,-0.43004 3.7278594,3.7278594 0 0 1 -1.809406,-4.35878 z"
               id="path4059-3-6-61-0-5"
               inkscape:connector-curvature="0" />
            <path
               style="fill:#03a9f4;fill-opacity:1;stroke-width:0.08901384"
               d="m 37.999198,931.73629 a 2.7098622,2.7098622 0 0 1 0.410871,1.76541 c -0.0072,0.0698 -0.01769,0.13798 -0.03102,0.20511 a 2.7098622,2.7098622 0 0 1 -0.809567,1.46956 c -0.659869,0.74551 -1.450348,1.28732 -1.375658,1.79807 0.01241,0.61386 0.903746,0.95815 1.774769,1.61405 a 3.7278594,3.7278594 0 0 1 1.107997,1.10959 3.7278594,3.7278594 0 0 1 -1.123896,5.15076 3.7278594,3.7278594 0 0 1 -5.150831,-1.12393 3.7278594,3.7278594 0 0 1 1.123985,-5.15082 3.7278594,3.7278594 0 0 1 0.269419,-0.15507 c 0.698092,-0.51247 1.316797,-0.86536 1.304527,-1.38217 0.04935,-0.48633 -0.677427,-0.96671 -1.342626,-1.62406 a 2.7098622,2.7098622 0 0 1 -0.719314,-0.74926 2.7098622,2.7098622 0 0 1 0.817022,-3.74429 2.7098622,2.7098622 0 0 1 3.744295,0.81704 z"
               id="path4059-3-6-61-9"
               inkscape:connector-curvature="0" />
            <path
               style="fill:#fdd835;fill-opacity:1;stroke-width:0.15559383"
               d="m 44.594306,946.37987 a 3.2043724,3.2043724 0 0 1 -0.594973,2.42366 3.2043724,3.2043724 0 0 1 -1.830353,1.19969 c -0.04914,0.0123 -0.09846,0.0223 -0.147518,0.031 a 3.2043724,3.2043724 0 0 1 -0.1312,0.0225 c 1.3e-5,2e-5 8e-6,-2e-5 0,0 a 3.2043724,3.2043724 0 0 1 -1.89399,-0.30853 c -1.090501,-0.42037 -2.012323,-1.05733 -2.543226,-0.76403 -0.674422,0.26921 -0.684593,1.39945 -1.04817,2.6369 a 4.408139,4.408139 0 0 1 -0.766938,1.68702 4.408139,4.408139 0 0 1 -6.168883,0.89921 4.408139,4.408139 0 0 1 -0.899126,-6.16884 4.408139,4.408139 0 0 1 6.168883,-0.89922 4.408139,4.408139 0 0 1 0.283589,0.23354 c 0.857696,0.55945 1.505919,1.09783 2.072793,0.86919 0.558754,-0.1477 0.788005,-1.1518 1.238793,-2.16113 a 3.2043724,3.2043724 0 0 1 0.530809,-1.10859 3.2043724,3.2043724 0 0 1 4.48447,-0.65376 3.2043724,3.2043724 0 0 1 1.248416,2.06075 z"
               id="path4059-3-6-61-0-9-7-98"
               inkscape:connector-curvature="0" />
            <path
               style="fill:#fdd835;fill-opacity:1;stroke-width:0.08901384"
               d="m 38.225214,956.42908 a 1.8331927,1.8331927 0 0 1 0.541039,-1.32117 1.8331927,1.8331927 0 0 1 2.592615,0.009 1.8331927,1.8331927 0 0 1 0.514303,1.04642 1.8331927,1.8331927 0 0 1 0.01031,0.0905 c 8.2e-5,0.0283 0.0072,0.0565 0.0074,0.0845 a 1.8331927,1.8331927 0 0 1 -0.33223,1.12455 c -0.329929,0.58184 -0.768477,1.04988 -0.647353,1.3751 0.09542,0.40427 0.733905,0.5054 1.403168,0.81553 a 2.5218568,2.5218568 0 0 1 0.890216,0.57649 2.5218568,2.5218568 0 0 1 -0.01198,3.56648 2.5218568,2.5218568 0 0 1 -3.566358,-0.012 2.5218568,2.5218568 0 0 1 0.01197,-3.56648 2.5218568,2.5218568 0 0 1 0.15579,-0.14048 c 0.389062,-0.43828 0.74864,-0.7595 0.667096,-1.09967 -0.03644,-0.32874 -0.585714,-0.54317 -1.118934,-0.88369 a 1.8331927,1.8331927 0 0 1 -0.582012,-0.39336 1.8331927,1.8331927 0 0 1 -0.532367,-1.27133 z"
               id="path4059-3-6-61-0-9-7-9-7-8"
               inkscape:connector-curvature="0" />
          </g>
        </g>
      </g>
    </g>
    <g
       inkscape:groupmode="layer"
       id="layer2"
       inkscape:label="Layer 2" />
  </g>
</svg>
