<?xml version="1.0" encoding="UTF-8" standalone="no"?>
<!-- Generator: Adobe Illustrator 20.1.0, SVG Export Plug-In . SVG Version: 6.00 Build 0)  -->

<svg
   xmlns:dc="http://purl.org/dc/elements/1.1/"
   xmlns:cc="http://creativecommons.org/ns#"
   xmlns:rdf="http://www.w3.org/1999/02/22-rdf-syntax-ns#"
   xmlns:svg="http://www.w3.org/2000/svg"
   xmlns="http://www.w3.org/2000/svg"
   xmlns:sodipodi="http://sodipodi.sourceforge.net/DTD/sodipodi-0.dtd"
   xmlns:inkscape="http://www.inkscape.org/namespaces/inkscape"
   version="1.1"
   x="0px"
   y="0px"
   viewBox="0 0 24.96 17.960001"
   xml:space="preserve"
   width="104"
   height="74.833336"
   id="svg84"
   sodipodi:docname="moodle-icon.svg"
   inkscape:version="0.92.3 (3ce5693, 2018-03-11)"><metadata
   id="metadata90"><rdf:RDF><cc:Work
       rdf:about=""><dc:format>image/svg+xml</dc:format><dc:type
         rdf:resource="http://purl.org/dc/dcmitype/StillImage" /><dc:title></dc:title></cc:Work></rdf:RDF></metadata><defs
   id="defs88" /><sodipodi:namedview
   pagecolor="#ffffff"
   bordercolor="#666666"
   borderopacity="1"
   objecttolerance="10"
   gridtolerance="10"
   guidetolerance="10"
   inkscape:pageopacity="0"
   inkscape:pageshadow="2"
   inkscape:window-width="1366"
   inkscape:window-height="672"
   id="namedview86"
   showgrid="false"
   inkscape:zoom="4.9"
   inkscape:cx="73.758939"
   inkscape:cy="35.33333"
   inkscape:window-x="0"
   inkscape:window-y="27"
   inkscape:window-maximized="1"
   inkscape:current-layer="svg84"
   fit-margin-top="2"
   fit-margin-left="2"
   fit-margin-bottom="2"
   fit-margin-right="2" />
<path
   style="fill:none;fill-opacity:1;stroke:#ff9800;stroke-width:3;stroke-miterlimit:10;stroke-opacity:1"
   d="m 14.98,17.48 v -7.5 c 0,-2.209 1.791,-4 4,-4 v 0 c 2.209,0 4,1.791 4,4 v 7.5"
   id="path70"
   inkscape:connector-curvature="0" />
<polygon
   points="0,8 6,4 14,3 8,8 "
   id="polygon72"
   style="fill:#ff9800;fill-opacity:1"
   transform="translate(0.48,-2.52)" />
<path
   d="m 4.807,3.669 c 0,0 -0.327,0.84 -0.327,2.004 0,1.184 0.323,2.004 0.323,2.004 l 4.442,1.065 3.249,-3.674 c 0,0 -0.528,-2.216 -1.789,-2.879 -0.652,-0.245 -5.898,1.48 -5.898,1.48 z"
   id="path74"
   style="fill:#ff9800;fill-opacity:1;stroke:none;stroke-opacity:1"
   inkscape:connector-curvature="0" />

<g
   id="g82"
   style="fill:#ff9800;fill-opacity:1;stroke:none"
   transform="translate(0.48,-2.52)">
	<path
   d="M 5.033,11.91 C 5.012,12.104 5,12.301 5,12.5 V 20 h 3 v -7.379 z"
   id="path78"
   style="fill:#ff9800;fill-opacity:1;stroke:none"
   inkscape:connector-curvature="0" />
	<path
   d="m 13.652,7.999 -2.02,2.284 C 12.44,10.698 13,11.531 13,12.5 V 20 h 3 V 12.5 C 16,10.64 15.069,8.995 13.652,7.999 Z"
   id="path80"
   style="fill:#ff9800;fill-opacity:1;stroke:none"
   inkscape:connector-curvature="0" />
</g>
<g
   id="g4946"
   transform="translate(12.186122,-0.0710204)"
   style="fill:#ff6600;stroke:#ff9800;stroke-opacity:1"><path
     id="line76-3"
     style="fill:#ff7f2a;fill-opacity:1;stroke:#ff9800;stroke-width:0.99999994;stroke-miterlimit:10;stroke-opacity:1"
     d="M -10.285715,15.383674 V 5.383673"
     inkscape:connector-curvature="0" /></g></svg>